<?xml version="1.0" encoding="utf-8"?>
<!-- Generator: Adobe Illustrator 15.0.2, SVG Export Plug-In . SVG Version: 6.00 Build 0)  -->
<!DOCTYPE svg PUBLIC "-//W3C//DTD SVG 1.1//EN" "http://www.w3.org/Graphics/SVG/1.1/DTD/svg11.dtd">
<svg version="1.1" xmlns="http://www.w3.org/2000/svg" xmlns:xlink="http://www.w3.org/1999/xlink" x="0px" y="0px" width="800px"
	 height="600px" viewBox="0 0 800 600" enable-background="new 0 0 800 600" xml:space="preserve">
<g id="outer_section">
	<path fill="#444343" d="M381.057,226.144c-6.247,0.436-12.129,5.915-13.437,9.877c-9.645,1.094-13.428,6.574-14.529,14.009
		c-4.793-1.234-9.762,3.741-9.515,7.699c-6.029-0.509-9.732,6.9-8.28,9.805c-13.001,2.542-15.101,13.805-15.108,15.907
		c-1.484,0.29-3.037,1.916-4.199,3.522c-1.505,2.079-2.456,5.521-1.539,7.953c-11.607,0.658-23.876,11.122-24.768,13.655
		c1.494,3.731,9.576,9.986,23.75,14.163c0.15,3.731,0.613,5.111,2.106,8.099c2.834,3.133,4.074,3.122,6.319,4.612
		c0.143,2.242,0.361,3.663,1.089,5.52c0.913,2.298,1.216,3.451,3.05,4.721c2.649,1.829,6.101,4.14,9.08,3.704
		c0.653,6.229,2.898,9.124,8.57,10.168c-0.097,3.232,2.819,8.681,9.006,8.281c1.437,3.709,2.195,6.899,5.622,9.468
		c3.155,2.367,5.636,4.714,9.486,4.113c0.324,5.896,8.965,9.975,13.582,9.226c1.641,8.502,7.324,19.596,13.291,22.733
		c3.283-1.943,11.561-11.876,13.729-23.17c7.383,0.698,11.777-4.653,13.364-8.86c1.944,0.73,6.839-2.106,8.624-3.72
		c2.626-2.373,4.935-6.534,5.538-9.5c1.918,0.086,3.968-0.926,5.957-2.107c1-0.594,2.138-1.974,2.832-3.026
		c0.681-1.03,1.734-2.746,2.179-4.09c1.793-0.445,3.441-1.757,5.052-3.604c1.524-1.739,2.003-3.096,1.921-5.329
		c2.741-0.776,7.769-2.492,9.733-4.722c2.235-2.533,3.432-6.828,4.43-9.95c2.238-1.194,2.845-1.626,4.722-4.213
		c1.965-2.696,2.604-4.934,2.904-8.135c4.645,0.236,9.907-3.576,13.873-5.374c4.049-1.834,7.9-4.948,10.46-8.53
		c-2.089-4.621-6.756-6.924-10.378-8.729c-2.193-1.089-4.746-2.292-7.08-3.056c-2.517-0.82-4.242-1.634-6.802-1.692
		c0.631-3.387-0.711-6.542-2.978-9.224c-1.204-1.417-2.545-4.136-5.229-4.576c0.147-3.436-1.996-6.755-3.922-9.733
		c-1.643-2.542-6.88-5.062-10.312-5.511c-0.146-6.319-5.255-7.99-7.193-8.144c-0.149-2.533-1.45-5.652-3.461-6.85
		c-1.754-1.053-4.626-1.812-6.653-1.861c-0.329-4.267-2.703-8.112-6.198-10.664c-2.022-1.479-5.929-2.251-8.017-2.551
		c-1.044-3.727-5.262-6.196-6.97-7.082c-1.909-0.985-5.258-1.571-7.049-1.271c-1.043-11.042-10.386-22.007-13.146-24.622
		C394.566,203.482,382.727,212.852,381.057,226.144z"/>
</g>
<g id="Layer_4">
	<path fill="#727171" d="M417.348,242.413c-0.202-0.218-0.408-1.471-0.561-1.961c-0.216-0.699-0.483-1.267-0.92-1.888
		c-0.844-1.208-1.822-1.966-3.168-2.62c-1.368-0.667-3.101-1.153-4.648-1.28c-1.65-0.132-3.019,0.491-4.535,0.472
		c-0.17-3.277-0.115-6.133-1.08-9.192c-0.77-2.442-1.947-5.121-3.271-7.376c-0.025-0.043-0.053-0.086-0.079-0.127
		c-0.979-1.489-2.434-3.582-4.051-4.412c-1.742-0.895-4.43,3.114-5.34,4.497c-1.621,2.458-2.646,5.268-3.314,8.123
		c-0.176,0.75-1.67,8.417-1.116,8.575c-3.234-0.935-5.529-2.128-8.836-0.513c-2.438,1.194-4.507,4.408-4.914,6.905
		c-3.179,0.159-5.81,0.059-8.261,2.21c-1.887,1.652-3.65,3.459-4.542,5.751c-2.168,5.561-0.123,11.653,1.21,17.06
		c0.229,0.93,0.991,2.986-0.547,3.06c-0.538-2.302-1.242-4.358-1.625-6.75c-0.325-2.021-0.931-4.291-2.424-5.847
		c-1.343-1.402-4.178-2.869-5.808-1.081c-1.06,1.158-1.734,5.084-0.901,6.556c-2.438-0.609-4.79-0.545-6.696,1.379
		c-1.939,1.952-1.943,4.821,0.231,6.301c1.979,1.348,12.845,2.801,12.317,5.251c-1.262,0.168-2.692-0.608-3.845-0.939
		c-1.343-0.385-2.705-0.758-4.06-1.167c-2.447-0.735-5.858-1.407-8.528-1.167c-4.993,0.455-10.92,5.012-11.428,10.272
		c-0.095,1.004,0.381,2.884-0.291,3.619c-0.363,0.399-2.188,0.459-2.787,0.758c-1.594,0.791-2.697,2.193-3.418,3.787
		c-1.48,3.26-1.476,7.389-0.497,10.785c-3.698-0.031-8.301-0.804-11.805,1.144c-2.381,1.325-5.002,2.366-7.12,4.117
		c-3.148,2.602-1.055,5.171,2.047,7.018c1.679,0.999,3.352,1.398,5.086,2.233c1.723,0.831,3.209,1.59,5.027,1.98
		c1.859,0.396,4.991-0.082,6.367,0.803c-0.399,3.287-0.653,5.398,0.999,8.498c1.369,2.56,3.702,3.863,6.358,4.681
		c0.19,3.232,0.136,5.548,1.777,8.294c1.485,2.483,3.117,4.707,6.003,5.229c6.426,1.163,11.395-0.816,17.437-2.278
		c1.168-0.286,3.018-0.595,1.738,1.117c-0.508,0.675-2.517,0.958-3.293,1.198c-2.338,0.727-4.681,1.67-6.821,2.822
		c-2.106,1.132-4.41,3.333-2.912,5.716c1.257,1.993,4.665,2.452,6.837,1.962c0.748,1.666,0.524,4.366,2.069,5.597
		c1.836,1.458,4.126,0.154,5.437-1.252c2.727-2.934,2.608-7.882,4.335-11.358c2.139-0.224,0.068,4.218-0.186,5.192
		c-0.534,2.053-0.919,4.104-1.162,6.243c-1.11,9.777,3.699,17.122,14.02,16.604c0.828,3.224,1.287,5.253,4.923,6.2
		c1.248,0.328,2.494,0.842,3.87,0.977c1.518,0.15,2.894-0.518,4.233-0.167c-0.275,4.533,0.844,8.457,2.691,12.41
		c1.631,3.496,4.643,5.446,6.814,8.208c3.094-1.598,4.662-6.17,6.21-9.026c1.023-1.883,1.701-3.812,2.324-5.8
		c0.681-2.169,0.47-4.349,0.869-6.61c2.871,0.623,5.2,1.394,8.244,0.215c2.95-1.141,3.713-4.046,4.539-6.605
		c2.952,0.541,5.363,0.689,7.894-1.1c2.07-1.465,3.829-3.949,5.042-6.204c2.696-5.013,0.572-12.084-1.018-17.097
		c-0.302-0.954-1.208-2.46-0.396-3.305c3.25,3.019,1.718,8.92,5.088,11.789c3.82,3.255,10.205,0.037,7.332-5.334
		c2.403-0.086,4.196,1.879,6.134-0.853c1.62-2.284,0.703-4.608-1.311-5.966c-1.842-1.239-4.326-1.929-6.35-2.755
		c-1.518-0.622-5.063-1.407-5.435-3.2c0.184-0.178,0.349-0.322,0.551-0.454c0.256-0.169,5.62,2.161,6.414,2.329
		c2.451,0.518,4.969,0.657,7.471,0.566c4.541-0.163,9.21-1.215,12.015-5.201c1.662-2.361,2.547-5.771,2.603-8.688
		c3.576-0.102,5.056-2.084,6.356-5.266c0.676-1.662,1.805-7.083,0.751-8.322c2.064,0.22,4.136-0.489,6.227-0.58
		c1.972-0.087,4.016-0.609,5.767-1.599c2.656-1.498,5.624-3.304,7.224-5.992c0.966-1.629-0.069-2.56-1.32-3.722
		c-1.266-1.186-2.755-2.185-4.332-2.901c-2.847-1.289-5.766-1.901-8.888-2.056c-1.819-0.091-3.94-0.205-5.68,0.295
		c0.808-0.926,0.449-3.232,0.449-4.459c0-1.679-0.401-2.8-0.971-4.257c-0.452-1.162-0.756-2.561-1.907-3.323
		c-1.063-0.708-2.439-1.121-3.608-1.625c-0.18-0.072-0.559-0.072-0.761-0.104c-0.057-2.81,0.021-6.15-1.881-8.494
		c-1.667-2.052-3.438-4.19-6.177-4.961c-2.796-0.79-6.541-0.608-9.39-0.019c-3.03,0.631-5.749,1.92-8.809,2.061
		c-0.554,0.027-1.935,0.137-1.582-0.785c0.18-0.468,1.363-0.694,1.772-0.84c1.512-0.531,2.976-1.122,4.46-1.693
		c2.597-1.003,6.167-1.552,7.427-4.453c0.785-1.811-0.177-3.763-1.891-4.603c-0.754-0.372-1.718-0.467-2.54-0.508
		c-0.54-0.027-1.705,0.286-2.161-0.018c-0.708-0.472-0.213-1.53-0.281-2.284c-0.065-0.722-0.161-1.352-0.39-2.034
		c-0.416-1.235-0.827-2.369-2.204-2.833c-2.939-0.985-4.93,2.174-5.904,4.462c-0.585,1.38-1.23,2.774-1.725,4.181
		c-0.472,1.339-0.651,2.696-1.255,3.972c-0.177,0.373-0.627,1.457-1.189,1.33c-0.716-0.154-0.2-1.29-0.098-1.743
		c0.331-1.48,0.706-2.928,0.949-4.453c0.463-2.901,1.817-5.71,1.475-8.716c-0.321-2.833-0.886-5.57-2.489-8.062
		c-1.168-1.807-3.051-2.732-4.946-3.486c-1.008-0.399-4.904-1.816-5.638-1.04"/>
</g>
<g id="Layer_3">
	<circle fill="#FFFFFF" cx="380.258" cy="295.484" r="3.291"/>
	<circle fill="#FFFFFF" cx="408.148" cy="295.484" r="3.291"/>
	<circle fill="#FFFFFF" cx="408.148" cy="323.084" r="3.291"/>
	<circle fill="#FFFFFF" cx="380.258" cy="323.084" r="3.291"/>
</g>
<g id="Layer_6">
	<path fill="#969696" d="M480.226,307.06c-1.217-0.735-2.719-0.754-3.817-1.411c-2.696-0.55-6.909-0.641-8.145-0.618
		c-2.563,0.032-5.592,0.899-8.017,1.279c2.144-2.704,4.857-5.319,4.595-9.119c-0.214-3.149-1.943-6.359-4.571-8.145
		c-4.767-3.227-12.225-0.122-12.806,5.743c-0.236,2.356,1.057,5.143,3.204,6.26c-0.009-0.689-0.412-1.389-0.485-2.097
		c-0.096-0.822-0.077-1.458,0.186-2.225c0.446-1.294,1.693-2.502,3.102-2.425c1.325,0.069,2.77,0.769,3.608,1.821
		c0.995,1.248,0.867,2.65,0.653,4.186c-0.371,2.683-2.959,4.78-5.614,4.939c-3.387,0.204-5.598-1.122-7.527-3.801
		c-3.341-4.62-2.741-11.335,1.493-15.307c0.668-0.617,1.398-1.449,2.084-1.993c0.79-0.613,1.865-0.762,2.811-0.958
		c1.166-0.241,1.67-0.458,2.978-0.463c1.054,0,2.347,0,3.277,0.627c-0.312-0.741-0.989-1.54-1.435-2.225
		c-0.431-0.654-1.698-1.817-2.351-2.029c-1.834-0.894-3.016-1.298-5.025-1.629c-0.931-0.041-2.151-0.032-3.109,0.349
		c-0.931,0.359-1.448,1.072-2.106,1.789c-0.718,0.785-1.244,1.521-1.767,2.47c-0.453,0.812-0.73,1.802-1.121,2.528
		c0.113-0.93-1.085-2.865-1.588-3.672c-0.718-1.139-1.377-2.025-2.493-2.8c-2.483-1.726-5.447-1.008-7.727,0.693
		c-1.471,1.095-2.978,2.747-3.504,4.518c0.768,0.132,1.566-0.141,2.315-0.177c0.804-0.037,1.521,0.09,2.224,0.195
		c1.521,0.227,2.401,1.021,3.658,1.957c2.28,1.707,3.678,3.387,4.85,5.91c0.612,1.344,1.103,2.56,0.994,4.14
		c-0.096,1.325-0.25,3.251-0.759,4.476c-0.594,1.443-1.053,2.07-2.224,3.097c-1.018,0.89-1.779,1.789-3.01,2.328
		c-1.357,0.604-3.232,0.758-4.767,0.468c-1.498-0.295-2.233-1.048-3.265-2.065c-0.971-0.962-2.061-1.461-2.355-2.974
		c-0.277-1.411-0.44-3.186,0.368-4.461c1.207-1.911,3.686-3.469,5.741-2.029c1.699,1.189,2.997,3.468,2.897,5.579
		c1.875-1.834,1.734-5.575,0.518-7.731c-1.526-2.71-3.155-4.031-6.22-4.34c-3.183-0.322-5.416,0.799-6.909,3.559
		c-0.686,1.29-1.384,2.237-1.625,3.709c-0.127,0.79-0.228,1.535-0.309,2.343c-0.072,0.745-0.182,1.498-0.072,2.302
		c0.204,1.538,0.825,2.878,1.765,4.048c0.945,1.162,2.352,1.834,2.97,3.301c-2.796,0.396-5.479-0.912-7.836-2.115
		c-2.586-1.33-5.905-1.071-8.806-0.681c-2.438,0.322-3.985,1.112-6.292,1.847c-0.347,0.11-0.815,0.255-1.262,0.45
		c-0.125-0.128-0.302-0.19-0.442-0.304c0.681-0.945,1.2-2.025,1.504-2.824c0.952-2.496,1.465-5.302,1.345-7.976
		c-0.096-2.124-0.835-4.386-1.482-6.359c-0.577-1.762-1.859-4.173-1.573-6.133c0.023-0.155,0.005-0.373-0.002-0.532
		c1.25,2.256,3.4,4.257,5.958,4.893c2.335,0.586,4.917,0.378,7.113-0.58c6.169-2.693,8.101-10.737,1.718-14.5
		c-2.823-1.671-5.939-1.072-8.379,0.658c4.428-0.731,8.029,3.458,4.754,7.117c-1.402,1.571-4.049,1.761-5.921,1.19
		c-2.286-0.685-3.369-1.857-3.958-4.172c-0.325-1.271-0.527-3.291-0.264-4.685c0.174-0.894,0.576-1.625,1.094-2.319
		c0.49-0.672,1.017-1.249,1.596-1.852c1.205-1.253,2.826-2.061,4.523-2.378c3.478-0.645,7.199,0.612,10.005,2.655
		c3.438,2.501,5.927,7.245,4.98,11.299c1.749-0.318,3.045-2.361,3.872-3.75c1.35-2.27,2.608-4.762,1.314-7.372
		c-0.638-1.294-1.357-2.152-2.497-3.01c-1.116-0.85-2.679-1.19-3.689-1.739c0.171,0.096,1.936-0.785,2.188-0.903
		c0.78-0.358,1.448-0.854,2.038-1.475c2.479-2.575,3.488-5.307,1.696-8.662c-0.543-1.017-2.331-3.277-3.571-3.382
		c-0.159,2.892-0.828,5.656-2.7,7.935c-0.858,1.044-1.937,1.825-3.004,2.637c-1.168,0.89-2.348,1.058-3.703,1.326
		c-2.204,0.436-5.096,0.694-7.34-0.023c-1.127-0.358-2.162-0.499-3.099-1.334c-0.716-0.64-1.021-0.817-1.741-1.448
		c-0.507-0.455-1.017-1.226-1.341-1.907c-0.559-1.158-0.606-2.742-0.523-4c0.06-0.926,0.316-1.848,0.656-2.715
		c0.328-0.835,0.992-1.475,1.573-2.056c0.87-0.581,1.907-1.58,3.387-1.725c1.445-0.136,3.01,0.091,4.172,0.949
		c2.451,1.812,1.133,5.193-1.172,6.219c-1.374,0.618-2.784,0.522-4.339,0.599c0.088,0.899,2.105,1.943,2.873,2.333
		c1.555,0.799,3.654,0.708,5.245,0.122c1.38-0.508,2.733-1.062,3.772-2.178c3.644-3.877,0.593-9.783-3.016-12.28
		c-2.271-1.566-5.816-2.215-8.408-1.284c-0.926,0.331-2.072,0.994-2.828,1.629c-0.825,0.69-1.4,1.634-2.398,2.152
		c0.096-1.453,0.475-2.678,0.504-4.067c0.031-1.425,0.396-3.069,0.466-4.549c0.146-3.009,0.045-6.464-0.992-9.201
		c-0.725-1.934-1.639-3.677-2.713-5.406c-0.986,0.762-1.704,1.916-2.329,2.959c-0.732,1.217-0.754,2.719-1.411,3.818
		c-0.547,2.697-0.638,6.909-0.615,8.144c0.029,2.564,0.897,5.593,1.28,8.017c-2.706-2.143-5.32-4.857-9.122-4.594
		c-3.15,0.214-6.36,1.943-8.142,4.572c-3.23,4.767-0.125,12.225,5.74,12.806c2.358,0.236,5.144-1.058,6.26-3.205
		c-0.69,0.009-1.39,0.413-2.097,0.486c-0.819,0.095-1.457,0.077-2.225-0.186c-1.291-0.445-2.499-1.693-2.424-3.101
		c0.067-1.325,0.767-2.769,1.82-3.608c1.247-0.995,2.653-0.867,4.186-0.654c2.684,0.373,4.78,2.96,4.939,5.615
		c0.206,3.387-1.123,5.598-3.801,7.527c-4.621,3.341-11.335,2.742-15.304-1.494c-0.621-0.667-1.448-1.398-1.993-2.083
		c-0.615-0.791-0.766-1.866-0.961-2.81c-0.241-1.167-0.458-1.671-0.461-2.979c0-1.053-0.002-2.347,0.625-3.277
		c-0.741,0.313-1.54,0.99-2.223,1.435c-0.656,0.432-1.816,1.697-2.029,2.352c-0.894,1.834-1.3,3.014-1.631,5.025
		c-0.042,0.931-0.03,2.152,0.349,3.11c0.359,0.93,1.072,1.448,1.791,2.106c0.783,0.717,1.521,1.244,2.468,1.766
		c0.812,0.454,1.802,0.731,2.53,1.121c-0.932-0.113-2.866,1.086-3.672,1.589c-1.139,0.717-2.026,1.375-2.803,2.492
		c-1.726,2.483-1.006,5.447,0.697,7.726c1.094,1.471,2.745,2.979,4.516,3.505c0.13-0.768-0.143-1.566-0.179-2.315
		c-0.037-0.803,0.093-1.521,0.197-2.225c0.225-1.521,1.019-2.401,1.954-3.659c1.708-2.278,3.389-3.677,5.91-4.848
		c1.344-0.613,2.561-1.103,4.143-0.994c1.326,0.096,3.25,0.25,4.475,0.758c1.443,0.595,2.071,1.053,3.098,2.224
		c0.887,1.017,1.787,1.78,2.327,3.01c0.603,1.357,0.758,3.232,0.467,4.767c-0.293,1.498-1.046,2.233-2.066,3.263
		c-0.96,0.973-1.461,2.062-2.973,2.357c-1.411,0.276-3.187,0.44-4.462-0.369c-1.909-1.207-3.468-3.686-2.029-5.742
		c1.189-1.698,3.471-2.996,5.581-2.896c-1.834-1.875-5.577-1.734-7.733-0.518c-2.71,1.525-4.029,3.155-4.34,6.219
		c-0.32,3.182,0.799,5.415,3.562,6.91c1.288,0.685,2.235,1.384,3.707,1.625c0.789,0.128,1.536,0.227,2.344,0.308
		c0.745,0.073,1.496,0.183,2.303,0.073c1.538-0.204,2.875-0.827,4.047-1.766c1.162-0.945,1.836-2.352,3.3-2.97
		c0.395,2.797-0.91,5.48-2.115,7.836c-1.331,2.588-1.069,5.906-0.681,8.808c0.321,2.438,1.114,3.984,1.848,6.29
		c0.069,0.223,0.155,0.496,0.257,0.781c-0.183,0.15-0.283,0.367-0.438,0.546c-0.999-0.782-2.198-1.373-3.074-1.708
		c-2.496-0.949-5.301-1.462-7.978-1.344c-2.124,0.096-4.384,0.84-6.36,1.483c-1.759,0.578-4.171,1.858-6.132,1.572
		c-0.157-0.023-0.373-0.004-0.529,0.004c2.254-1.248,4.256-3.399,4.894-5.956c0.583-2.337,0.377-4.916-0.584-7.117
		c-2.688-6.17-10.733-8.099-14.498-1.716c-1.667,2.823-1.071,5.938,0.661,8.379c-0.736-4.43,3.457-8.029,7.115-4.757
		c1.571,1.407,1.762,4.049,1.194,5.923c-0.689,2.285-1.858,3.37-4.176,3.96c-1.269,0.322-3.287,0.526-4.685,0.263
		c-0.894-0.172-1.622-0.576-2.319-1.094c-0.67-0.49-1.249-1.018-1.853-1.598c-1.253-1.203-2.056-2.824-2.374-4.522
		c-0.647-3.477,0.612-7.198,2.653-10.004c2.499-3.441,7.243-5.928,11.296-4.979c-0.318-1.752-2.358-3.047-3.75-3.873
		c-2.27-1.352-4.762-2.609-7.373-1.316c-1.289,0.641-2.151,1.358-3.009,2.497c-0.847,1.121-1.189,2.678-1.737,3.692
		c0.094-0.174-0.787-1.935-0.903-2.188c-0.359-0.782-0.852-1.449-1.476-2.038c-2.574-2.479-5.306-3.491-8.661-1.699
		c-1.015,0.545-3.278,2.334-3.382,3.574c2.887,0.159,5.656,0.826,7.933,2.7c1.046,0.858,1.828,1.934,2.637,3.001
		c0.89,1.17,1.06,2.352,1.329,3.708c0.434,2.201,0.697,5.093-0.023,7.336c-0.361,1.13-0.497,2.165-1.336,3.099
		c-0.64,0.713-0.817,1.022-1.449,1.74c-0.452,0.509-1.228,1.017-1.906,1.344c-1.153,0.559-2.742,0.604-4,0.522
		c-0.924-0.061-1.85-0.318-2.714-0.66c-0.837-0.326-1.476-0.988-2.056-1.569c-0.582-0.872-1.58-1.907-1.723-3.387
		c-0.141-1.447,0.091-3.01,0.949-4.173c1.809-2.45,5.19-1.134,6.219,1.173c0.615,1.374,0.52,2.782,0.597,4.339
		c0.898-0.091,1.942-2.105,2.335-2.873c0.796-1.558,0.708-3.654,0.12-5.248c-0.508-1.381-1.062-2.733-2.176-3.773
		c-3.875-3.64-9.785-0.589-12.28,3.02c-1.568,2.27-2.215,5.815-1.285,8.407c0.331,0.926,0.992,2.07,1.627,2.828
		c0.69,0.826,1.636,1.398,2.154,2.396c-1.452-0.096-2.678-0.473-4.067-0.505c-1.428-0.032-3.068-0.395-4.548-0.463
		c-3.01-0.148-6.462-0.045-9.204,0.989c-1.929,0.728-3.674,1.64-5.406,2.716c0.765,0.984,1.916,1.702,2.96,2.329
		c1.219,0.729,2.719,0.754,3.822,1.411c2.692,0.545,6.903,0.635,8.14,0.618c2.567-0.032,5.595-0.9,8.014-1.285
		c-2.141,2.71-4.853,5.32-4.591,9.123c0.217,3.15,1.943,6.361,4.571,8.14c4.771,3.231,12.23,0.128,12.809-5.737
		c0.233-2.361-1.058-5.144-3.208-6.26c0.009,0.69,0.414,1.388,0.49,2.097c0.091,0.817,0.075,1.458-0.19,2.225
		c-0.445,1.289-1.691,2.497-3.101,2.425c-1.321-0.068-2.767-0.768-3.609-1.821c-0.994-1.247-0.865-2.655-0.653-4.186
		c0.372-2.682,2.962-4.78,5.617-4.938c3.384-0.204,5.593,1.12,7.527,3.8c3.338,4.62,2.741,11.336-1.498,15.302
		c-0.663,0.623-1.394,1.448-2.082,1.993c-0.79,0.618-1.864,0.767-2.808,0.962c-1.164,0.24-1.672,0.46-2.98,0.46
		c-1.051,0-2.345,0.004-3.277-0.623c0.311,0.741,0.992,1.54,1.437,2.221c0.429,0.657,1.695,1.814,2.349,2.033
		c1.833,0.89,3.014,1.298,5.027,1.63c0.928,0.041,2.152,0.026,3.107-0.35c0.93-0.358,1.45-1.071,2.106-1.789
		c0.717-0.786,1.244-1.524,1.769-2.47c0.452-0.812,0.731-1.802,1.117-2.531c-0.109,0.934,1.087,2.867,1.593,3.672
		c0.717,1.138,1.377,2.029,2.494,2.805c2.479,1.725,5.443,1.003,7.724-0.699c1.467-1.094,2.978-2.745,3.503-4.518
		c-0.768-0.126-1.567,0.146-2.315,0.183c-0.799,0.037-1.518-0.096-2.225-0.199c-1.521-0.224-2.401-1.019-3.656-1.952
		c-2.278-1.707-3.68-3.387-4.846-5.91c-0.618-1.345-1.108-2.561-0.997-4.141c0.093-1.325,0.245-3.256,0.756-4.476
		c0.599-1.444,1.053-2.074,2.226-3.101c1.015-0.885,1.782-1.785,3.005-2.323c1.361-0.604,3.237-0.759,4.769-0.469
		c1.498,0.29,2.236,1.048,3.267,2.066c0.972,0.957,2.061,1.46,2.354,2.972c0.275,1.413,0.44,3.188-0.367,4.463
		c-1.21,1.907-3.686,3.468-5.738,2.029c-1.7-1.189-3.003-3.473-2.901-5.584c-1.873,1.834-1.729,5.58-0.514,7.735
		c1.524,2.711,3.152,4.027,6.221,4.341c3.175,0.317,5.411-0.799,6.902-3.564c0.691-1.285,1.388-2.233,1.626-3.704
		c0.13-0.789,0.23-1.539,0.31-2.347c0.07-0.745,0.181-1.494,0.075-2.302c-0.208-1.539-0.827-2.873-1.771-4.044
		c-0.939-1.163-2.347-1.839-2.967-3.301c2.798-0.395,5.479,0.908,7.835,2.115c2.59,1.33,5.905,1.067,8.812,0.681
		c2.433-0.321,3.982-1.116,6.289-1.847c0.197-0.064,0.436-0.137,0.688-0.223c0.194,0.272,0.418,0.521,0.663,0.749
		c-0.652,0.921-1.145,1.961-1.438,2.737c-0.954,2.496-1.467,5.302-1.345,7.976c0.096,2.125,0.835,4.386,1.479,6.36
		c0.576,1.761,1.862,4.171,1.576,6.133c-0.023,0.153-0.005,0.372,0,0.53c-1.249-2.256-3.4-4.258-5.956-4.894
		c-2.338-0.585-4.917-0.376-7.114,0.582c-6.168,2.69-8.103,10.735-1.72,14.498c2.824,1.67,5.942,1.071,8.38-0.658
		c-4.426,0.73-8.031-3.459-4.752-7.117c1.402-1.571,4.049-1.763,5.919-1.188c2.287,0.685,3.368,1.854,3.958,4.17
		c0.327,1.271,0.527,3.292,0.263,4.686c-0.172,0.894-0.576,1.625-1.094,2.319c-0.489,0.673-1.017,1.248-1.593,1.852
		c-1.208,1.254-2.828,2.062-4.525,2.38c-3.478,0.644-7.2-0.613-10.005-2.657c-3.437-2.499-5.924-7.243-4.98-11.298
		c-1.747,0.318-3.046,2.36-3.872,3.75c-1.349,2.27-2.606,4.762-1.312,7.372c0.636,1.293,1.357,2.151,2.497,3.009
		c1.117,0.851,2.679,1.189,3.687,1.739c-0.167-0.096-1.934,0.786-2.188,0.904c-0.782,0.358-1.448,0.853-2.039,1.476
		c-2.478,2.572-3.486,5.307-1.693,8.661c0.542,1.016,2.329,3.276,3.568,3.382c0.159-2.893,0.831-5.656,2.702-7.935
		c0.858-1.045,1.938-1.826,3.005-2.639c1.166-0.891,2.346-1.058,3.703-1.326c2.203-0.436,5.094-0.693,7.34,0.023
		c1.126,0.358,2.161,0.498,3.096,1.334c0.717,0.64,1.022,0.818,1.744,1.448c0.503,0.454,1.017,1.226,1.339,1.906
		c0.559,1.157,0.608,2.742,0.521,4.001c-0.059,0.925-0.312,1.847-0.653,2.714c-0.327,0.836-0.994,1.476-1.574,2.056
		c-0.868,0.582-1.907,1.58-3.387,1.727c-1.444,0.135-3.01-0.093-4.173-0.949c-2.45-1.812-1.13-5.194,1.171-6.22
		c1.376-0.618,2.788-0.521,4.341-0.599c-0.087-0.9-2.106-1.943-2.874-2.335c-1.552-0.799-3.653-0.707-5.243-0.122
		c-1.38,0.509-2.733,1.063-3.772,2.18c-3.646,3.876-0.595,9.782,3.014,12.279c2.27,1.565,5.814,2.215,8.406,1.284
		c0.927-0.33,2.075-0.994,2.829-1.63c0.826-0.689,1.403-1.634,2.401-2.151c-0.096,1.454-0.477,2.678-0.505,4.067
		c-0.03,1.426-0.399,3.068-0.467,4.548c-0.145,3.012-0.045,6.465,0.994,9.202c0.722,1.934,1.639,3.677,2.711,5.405
		c0.988-0.762,1.706-1.915,2.328-2.959c0.734-1.215,0.753-2.719,1.411-3.816c0.55-2.697,0.64-6.91,0.617-8.146
		c-0.03-2.563-0.898-5.592-1.279-8.017c2.706,2.144,5.32,4.858,9.119,4.596c3.15-0.215,6.36-1.943,8.145-4.571
		c3.227-4.768,0.122-12.227-5.742-12.807c-2.356-0.235-5.144,1.057-6.261,3.205c0.69-0.009,1.389-0.413,2.098-0.485
		c0.821-0.096,1.457-0.078,2.225,0.187c1.293,0.444,2.501,1.692,2.424,3.099c-0.068,1.327-0.767,2.771-1.82,3.61
		c-1.249,0.994-2.651,0.867-4.186,0.652c-2.684-0.371-4.78-2.959-4.939-5.614c-0.204-3.387,1.121-5.598,3.8-7.526
		c4.621-3.342,11.335-2.742,15.307,1.492c0.618,0.668,1.449,1.398,1.993,2.085c0.613,0.789,0.764,1.865,0.958,2.81
		c0.24,1.166,0.458,1.671,0.464,2.979c0,1.053,0,2.346-0.627,3.277c0.739-0.313,1.538-0.99,2.225-1.435
		c0.652-0.432,1.815-1.698,2.029-2.352c0.894-1.834,1.297-3.015,1.629-5.025c0.041-0.931,0.032-2.151-0.349-3.109
		c-0.359-0.931-1.072-1.448-1.789-2.106c-0.785-0.718-1.521-1.244-2.47-1.766c-0.812-0.455-1.802-0.731-2.529-1.121
		c0.932,0.113,2.865-1.085,3.674-1.589c1.14-0.718,2.024-1.377,2.801-2.493c1.724-2.482,1.007-5.446-0.695-7.726
		c-1.094-1.471-2.746-2.978-4.516-3.504c-0.133,0.767,0.141,1.565,0.177,2.315c0.035,0.803-0.091,1.52-0.195,2.224
		c-0.228,1.521-1.022,2.401-1.956,3.658c-1.708,2.279-3.387,3.678-5.911,4.849c-1.344,0.612-2.561,1.103-4.14,0.994
		c-1.326-0.097-3.25-0.25-4.477-0.758c-1.443-0.595-2.07-1.055-3.096-2.225c-0.891-1.017-1.789-1.78-2.329-3.01
		c-0.604-1.357-0.758-3.232-0.467-4.767c0.294-1.498,1.048-2.233,2.064-3.265c0.964-0.97,1.463-2.061,2.974-2.355
		c1.412-0.277,3.187-0.44,4.462,0.367c1.912,1.209,3.469,3.688,2.03,5.742c-1.19,1.699-3.469,2.997-5.58,2.897
		c1.834,1.875,5.575,1.733,7.731,0.518c2.71-1.524,4.031-3.154,4.339-6.22c0.323-3.182-0.799-5.416-3.559-6.908
		c-1.289-0.686-2.237-1.385-3.708-1.626c-0.791-0.126-1.535-0.228-2.342-0.309c-0.746-0.072-1.499-0.181-2.303-0.072
		c-1.538,0.204-2.878,0.826-4.049,1.767c-1.162,0.942-1.834,2.352-3.3,2.968c-0.396-2.796,0.911-5.479,2.115-7.834
		c1.329-2.588,1.07-5.906,0.681-8.808c-0.322-2.438-1.112-3.985-1.848-6.292c-0.053-0.167-0.118-0.376-0.186-0.585
		c0.364-0.318,0.698-0.677,0.951-1.095c0.932,0.664,1.989,1.171,2.78,1.472c2.496,0.953,5.302,1.467,7.976,1.343
		c2.124-0.095,4.385-0.834,6.359-1.479c1.762-0.576,4.172-1.86,6.133-1.575c0.154,0.022,0.372,0.005,0.531,0
		c-2.256,1.248-4.259,3.399-4.895,5.955c-0.585,2.339-0.375,4.917,0.582,7.115c2.692,6.167,10.735,8.103,14.499,1.72
		c1.67-2.824,1.07-5.942-0.658-8.38c0.73,4.427-3.459,8.03-7.118,4.753c-1.57-1.402-1.762-4.051-1.189-5.92
		c0.687-2.288,1.856-3.368,4.172-3.959c1.271-0.326,3.291-0.526,4.685-0.262c0.895,0.172,1.626,0.575,2.32,1.093
		c0.671,0.49,1.248,1.018,1.852,1.594c1.253,1.207,2.062,2.828,2.379,4.526c0.645,3.478-0.612,7.199-2.655,10.004
		c-2.502,3.437-7.245,5.925-11.299,4.979c0.317,1.748,2.36,3.047,3.749,3.872c2.271,1.349,4.763,2.606,7.373,1.312
		c1.294-0.636,2.151-1.357,3.01-2.496c0.848-1.117,1.188-2.68,1.738-3.687c-0.096,0.167,0.785,1.935,0.903,2.188
		c0.358,0.78,0.854,1.447,1.475,2.038c2.574,2.478,5.307,3.486,8.661,1.693c1.017-0.54,3.278-2.329,3.383-3.568
		c-2.892-0.159-5.657-0.831-7.936-2.702c-1.044-0.856-1.824-1.937-2.637-3.004c-0.891-1.166-1.058-2.348-1.326-3.704
		c-0.437-2.201-0.693-5.093,0.023-7.341c0.358-1.125,0.499-2.16,1.334-3.096c0.64-0.717,0.816-1.021,1.448-1.742
		c0.454-0.505,1.225-1.019,1.907-1.341c1.157-0.558,2.741-0.607,3.998-0.521c0.927,0.06,1.849,0.313,2.715,0.654
		c0.835,0.327,1.476,0.994,2.057,1.575c0.581,0.867,1.58,1.906,1.725,3.387c0.137,1.442-0.091,3.009-0.949,4.171
		c-1.81,2.452-5.192,1.131-6.218-1.171c-0.617-1.375-0.522-2.788-0.599-4.341c-0.9,0.087-1.944,2.107-2.335,2.874
		c-0.799,1.553-0.707,3.655-0.122,5.244c0.509,1.38,1.062,2.731,2.18,3.772c3.876,3.645,9.782,0.594,12.278-3.015
		c1.566-2.27,2.215-5.815,1.285-8.407c-0.332-0.926-0.994-2.074-1.63-2.828c-0.689-0.826-1.634-1.402-2.151-2.401
		c1.452,0.095,2.678,0.477,4.067,0.504c1.426,0.031,3.068,0.399,4.548,0.467c3.01,0.146,6.464,0.046,9.202-0.994
		c1.934-0.722,3.677-1.639,5.406-2.709C482.423,308.399,481.271,307.683,480.226,307.06z M351.328,312.252
		c-0.595,0.591-1.97,2.766-2.906,2.188c-0.409-0.253-0.629-1.194-0.923-1.598c-0.358-0.494-0.809-0.844-1.253-1.263
		c-0.481-0.449-2.567-2.205-2.113-3.027c0.068-0.123,0.139-0.189,0.222-0.23c0.063-0.396,1.998-2.084,2.417-2.575
		c0.722-0.84,1.359-2.723,2.474-1.814c0.939,0.763,1.465,2.146,2.274,3.05c0.649,0.722,2.476,1.711,2.276,2.714
		C353.606,310.663,351.995,311.595,351.328,312.252z M391.469,266.44c-0.593-0.59-2.768-1.966-2.19-2.901
		c0.255-0.408,1.193-0.626,1.6-0.921c0.493-0.363,0.844-0.813,1.262-1.257c0.45-0.481,2.204-2.565,3.028-2.111
		c0.12,0.068,0.19,0.136,0.229,0.222c0.397,0.064,2.086,1.993,2.577,2.416c0.837,0.721,2.723,1.361,1.813,2.474
		c-0.762,0.939-2.144,1.466-3.049,2.274c-0.722,0.649-1.714,2.479-2.717,2.279C393.055,268.724,392.123,267.112,391.469,266.44z
		 M397.426,352.404c0.595,0.591,2.77,1.965,2.192,2.901c-0.259,0.408-1.194,0.625-1.602,0.921c-0.491,0.363-0.845,0.812-1.262,1.257
		c-0.45,0.48-2.202,2.566-3.028,2.111c-0.118-0.068-0.191-0.136-0.228-0.222c-0.399-0.064-2.088-1.993-2.578-2.416
		c-0.835-0.722-2.723-1.361-1.812-2.474c0.758-0.939,2.144-1.467,3.046-2.274c0.722-0.648,1.716-2.479,2.719-2.278
		C395.842,350.121,396.772,351.732,397.426,352.404z M444.827,309.933c-0.063,0.399-1.993,2.089-2.415,2.579
		c-0.722,0.836-1.361,2.724-2.474,1.811c-0.94-0.758-1.467-2.142-2.274-3.045c-0.648-0.722-2.479-1.716-2.278-2.72
		c0.189-0.968,1.802-1.897,2.474-2.551c0.59-0.595,1.965-2.77,2.9-2.192c0.409,0.258,0.627,1.193,0.922,1.603
		c0.363,0.489,0.812,0.844,1.257,1.262c0.481,0.449,2.564,2.202,2.11,3.026C444.981,309.823,444.914,309.896,444.827,309.933z"/>
</g>
</svg>
