<?xml version="1.0" encoding="utf-8"?>
<!-- Generator: Adobe Illustrator 16.2.1, SVG Export Plug-In . SVG Version: 6.00 Build 0)  -->
<!DOCTYPE svg PUBLIC "-//W3C//DTD SVG 1.1//EN" "http://www.w3.org/Graphics/SVG/1.1/DTD/svg11.dtd">
<svg version="1.1" id="Layer_1" xmlns="http://www.w3.org/2000/svg" xmlns:xlink="http://www.w3.org/1999/xlink" x="0px" y="0px"
	 width="390px" height="390px" viewBox="0 0 390 390" enable-background="new 0 0 390 390" xml:space="preserve">
<polygon fill="#FFFFFF" stroke="#000000" stroke-miterlimit="10" points="-10,290 10,290 10,350 20,350 40,350 40,340 50,340 
	50,350 60,350 60,340 60,330 30,330 30,340 20,340 20,290 130,290 130,340 120,340 120,330 90,330 90,340 90,350 100,350 100,340 
	110,340 110,350 130,350 140,350 160,350 160,340 170,340 170,350 180,350 180,340 180,330 150,330 150,340 140,340 140,290 
	250,290 250,340 240,340 240,330 210,330 210,340 210,350 220,350 220,340 230,340 230,350 250,350 260,350 280,350 280,340 
	290,340 290,350 300,350 300,340 300,330 270,330 270,340 260,340 260,290 370,290 370,340 360,340 360,330 330,330 330,340 
	330,350 340,350 340,340 350,340 350,350 370,350 380,350 380,290 400,290 400,280 -10,280 "/>
<polygon fill="#FFFFFF" stroke="#000000" stroke-miterlimit="10" points="360,190 370,190 370,180 360,180 360,170 380,170 380,190 
	390,190 390,170 390,160 360,160 350,160 320,160 320,170 320,190 330,190 330,170 350,170 350,180 340,180 340,190 350,190 
	350,200 280,200 280,190 290,190 290,180 280,180 280,170 300,170 300,190 310,190 310,170 310,160 280,160 270,160 240,160 
	240,170 240,190 250,190 250,170 270,170 270,180 260,180 260,190 270,190 270,200 200,200 200,190 210,190 210,180 200,180 
	200,170 220,170 220,190 230,190 230,170 230,160 200,160 190,160 160,160 160,170 160,190 170,190 170,170 190,170 190,180 
	180,180 180,190 190,190 190,200 120,200 120,190 130,190 130,180 120,180 120,170 140,170 140,190 150,190 150,170 150,160 
	120,160 110,160 80,160 80,170 80,190 90,190 90,170 110,170 110,180 100,180 100,190 110,190 110,200 40,200 40,190 50,190 50,180 
	40,180 40,170 60,170 60,190 70,190 70,170 70,160 40,160 30,160 0,160 0,170 0,190 10,190 10,170 30,170 30,180 20,180 20,190 
	30,190 30,200 -10,200 -10,210 10,210 10,230 0,230 0,220 -10,220 -10,230 -10,240 10,240 10,260 0,260 0,250 -10,250 -10,260 
	-10,270 10,270 20,270 40,270 40,260 40,250 30,250 30,260 20,260 20,240 40,240 40,230 40,220 30,220 30,230 20,230 20,210 70,210 
	70,230 60,230 60,220 50,220 50,230 50,240 70,240 70,260 60,260 60,250 50,250 50,260 50,270 70,270 80,270 100,270 100,260 
	100,250 90,250 90,260 80,260 80,240 100,240 100,230 100,220 90,220 90,230 80,230 80,210 130,210 130,230 120,230 120,220 
	110,220 110,230 110,240 130,240 130,260 120,260 120,250 110,250 110,260 110,270 130,270 140,270 160,270 160,260 160,250 
	150,250 150,260 140,260 140,240 160,240 160,230 160,220 150,220 150,230 140,230 140,210 190,210 190,230 180,230 180,220 
	170,220 170,230 170,240 190,240 190,260 180,260 180,250 170,250 170,260 170,270 190,270 200,270 220,270 220,260 220,250 
	210,250 210,260 200,260 200,240 220,240 220,230 220,220 210,220 210,230 200,230 200,210 250,210 250,230 240,230 240,220 
	230,220 230,230 230,240 250,240 250,260 240,260 240,250 230,250 230,260 230,270 250,270 260,270 280,270 280,260 280,250 
	270,250 270,260 260,260 260,240 280,240 280,230 280,220 270,220 270,230 260,230 260,210 310,210 310,230 300,230 300,220 
	290,220 290,230 290,240 310,240 310,260 300,260 300,250 290,250 290,260 290,270 310,270 320,270 340,270 340,260 340,250 
	330,250 330,260 320,260 320,240 340,240 340,230 340,220 330,220 330,230 320,230 320,210 370,210 370,230 360,230 360,220 
	350,220 350,230 350,240 370,240 370,260 360,260 360,250 350,250 350,260 350,270 370,270 380,270 400,270 400,260 400,250 
	390,250 390,260 380,260 380,240 400,240 400,230 400,220 390,220 390,230 380,230 380,210 400,210 400,200 360,200 "/>
<path fill="#FFFFFF" stroke="#000000" stroke-miterlimit="10" d="M400,70V60H-10v10v10h-10v10h10v10h-10v10h10v10h-10v10h10v10v10
	h410v-10v-10h10v-10h-10v-10h10v-10h-10V90h10V80h-10V70z M0,140v-10h10v-10H0v-10h10v-10H0V90h10V80H0V70h30v10H20v10h10v10H20v10
	h10v10H20v10h10v10H0z M40,140v-10h10v-10H40v-10h10v-10H40V90h10V80H40V70h30v10H60v10h10v10H60v10h10v10H60v10h10v10H40z M80,140
	v-10h10v-10H80v-10h10v-10H80V90h10V80H80V70h30v10h-10v10h10v10h-10v10h10v10h-10v10h10v10H80z M120,140v-10h10v-10h-10v-10h10v-10
	h-10V90h10V80h-10V70h30v10h-10v10h10v10h-10v10h10v10h-10v10h10v10H120z M160,140v-10h10v-10h-10v-10h10v-10h-10V90h10V80h-10V70
	h30v10h-10v10h10v10h-10v10h10v10h-10v10h10v10H160z M200,140v-10h10v-10h-10v-10h10v-10h-10V90h10V80h-10V70h30v10h-10v10h10v10
	h-10v10h10v10h-10v10h10v10H200z M240,140v-10h10v-10h-10v-10h10v-10h-10V90h10V80h-10V70h30v10h-10v10h10v10h-10v10h10v10h-10v10
	h10v10H240z M280,140v-10h10v-10h-10v-10h10v-10h-10V90h10V80h-10V70h30v10h-10v10h10v10h-10v10h10v10h-10v10h10v10H280z M320,140
	v-10h10v-10h-10v-10h10v-10h-10V90h10V80h-10V70h30v10h-10v10h10v10h-10v10h10v10h-10v10h10v10H320z M360,140v-10h10v-10h-10v-10h10
	v-10h-10V90h10V80h-10V70h30v10h-10v10h10v10h-10v10h10v10h-10v10h10v10H360z"/>
<polygon fill="#FFFFFF" stroke="#000000" stroke-miterlimit="10" points="410,30 410,20 400,20 400,10 400,0 -10,0 -10,10 -10,20 
	-20,20 -20,30 -10,30 -10,40 -20,40 -20,50 10,50 10,40 0,40 0,30 10,30 10,20 0,20 0,10 30,10 30,20 20,20 20,30 30,30 30,40 
	20,40 20,50 50,50 50,40 40,40 40,30 50,30 50,20 40,20 40,10 70,10 70,20 60,20 60,30 70,30 70,40 60,40 60,50 90,50 90,40 80,40 
	80,30 90,30 90,20 80,20 80,10 110,10 110,20 100,20 100,30 110,30 110,40 100,40 100,50 130,50 130,40 120,40 120,30 130,30 
	130,20 120,20 120,10 150,10 150,20 140,20 140,30 150,30 150,40 140,40 140,50 170,50 170,40 160,40 160,30 170,30 170,20 160,20 
	160,10 190,10 190,20 180,20 180,30 190,30 190,40 180,40 180,50 210,50 210,40 200,40 200,30 210,30 210,20 200,20 200,10 230,10 
	230,20 220,20 220,30 230,30 230,40 220,40 220,50 250,50 250,40 240,40 240,30 250,30 250,20 240,20 240,10 270,10 270,20 260,20 
	260,30 270,30 270,40 260,40 260,50 290,50 290,40 280,40 280,30 290,30 290,20 280,20 280,10 310,10 310,20 300,20 300,30 310,30 
	310,40 300,40 300,50 330,50 330,40 320,40 320,30 330,30 330,20 320,20 320,10 350,10 350,20 340,20 340,30 350,30 350,40 340,40 
	340,50 370,50 370,40 360,40 360,30 370,30 370,20 360,20 360,10 390,10 390,20 380,20 380,30 390,30 390,40 380,40 380,50 410,50 
	410,40 400,40 400,30 "/>
<rect x="-10" y="380" fill="#FFFFFF" stroke="#000000" stroke-miterlimit="10" width="410" height="10"/>
<polygon fill="#FFFFFF" stroke="#000000" stroke-miterlimit="10" points="320,310 330,310 330,320 360,320 360,310 360,300 350,300 
	350,310 340,310 340,300 320,300 310,300 290,300 290,310 280,310 280,300 270,300 270,310 270,320 300,320 300,310 310,310 
	310,360 200,360 200,310 210,310 210,320 240,320 240,310 240,300 230,300 230,310 220,310 220,300 200,300 190,300 170,300 
	170,310 160,310 160,300 150,300 150,310 150,320 180,320 180,310 190,310 190,360 80,360 80,310 90,310 90,320 120,320 120,310 
	120,300 110,300 110,310 100,310 100,300 80,300 70,300 50,300 50,310 40,310 40,300 30,300 30,310 30,320 60,320 60,310 70,310 
	70,360 -10,360 -10,370 400,370 400,360 320,360 "/>
</svg>
