<?xml version="1.0" encoding="utf-8"?>
<!-- Generator: Adobe Illustrator 15.0.2, SVG Export Plug-In . SVG Version: 6.00 Build 0)  -->
<!DOCTYPE svg PUBLIC "-//W3C//DTD SVG 1.1//EN" "http://www.w3.org/Graphics/SVG/1.1/DTD/svg11.dtd">
<svg version="1.1" id="Layer_1" xmlns="http://www.w3.org/2000/svg" xmlns:xlink="http://www.w3.org/1999/xlink" x="0px" y="0px"
	 width="100px" height="100px" viewBox="0 0 100 100" enable-background="new 0 0 100 100" xml:space="preserve">
<path d="M4.762,50C4.762,25.49,26,4.668,50,4.668V0C23,0,0,22.549,0,50l0,0h4.766H4.762z"/>
<path d="M95.24,50H100c0-27.451-22-50-50-50v4.672C76,4.672,95.24,25.49,95.24,50z"/>
<path d="M95.238,50C95.238,74.51,74,95.332,50,95.332V100c27,0,50-22.549,50-50l0,0h-4.766H95.238z"/>
<path d="M4.762,50H0c0,27.451,22.381,50,50,50v-4.668C24.286,95.331,4.762,74.51,4.762,50z"/>
</svg>
